<svg xmlns="http://www.w3.org/2000/svg" width="1440" height="313" viewBox="0 0 1440 313"><defs><linearGradient id="sukva" x1="778.69" x2="778.69" y1="115.51" y2="390.69" gradientUnits="userSpaceOnUse"><stop offset="0" stop-color="#62bb65" stop-opacity="0"/><stop offset="1" stop-color="#62bb65" stop-opacity=".2"/></linearGradient><linearGradient id="sukvb" x1="0" x2="0" y1="-5948" y2="-5948" gradientUnits="userSpaceOnUse"><stop offset="0" stop-color="#62bb65" stop-opacity="0"/><stop offset="1" stop-color="#62bb65" stop-opacity=".1"/></linearGradient></defs><g><g><path fill="url(#sukva)" d="M0 265.972S108.137 151 258.294 151c150.157 0 210.694 98.59 325.206 98.59 114.512 0 300.399-79.588 496.45-79.588 196.05 0 360.05 95.97 360.05 95.97V313H0z"/></g><g><path fill="url(#sukvb)" d="M0 142.22S26 0 161 0s157 145.374 241 142.22c150.975-3.052 136-71.11 302-71.11S884 187.51 982.243 236.596c134.48 54.896 382.942-47.705 420.35-67.328L1440 149.645V313H0z"/></g></g></svg>