<svg xmlns="http://www.w3.org/2000/svg" width="58" height="58" viewBox="0 0 58 58"><g><g><g><g><path fill="none" stroke="#f4cc08" stroke-linecap="round" stroke-linejoin="round" stroke-miterlimit="20" stroke-width="2" d="M29 43c0-7.732 6.268-14 14-14s14 6.268 14 14-6.268 14-14 14-14-6.268-14-14z"/></g><g><path fill="none" stroke="#f4cc08" stroke-linecap="round" stroke-linejoin="round" stroke-miterlimit="20" stroke-width="2" d="M46.836 38.788A3.2 3.2 0 0 0 43.8 36.6h-1.6a3.2 3.2 0 0 0-3.2 3.2v0a3.2 3.2 0 0 0 3.2 3.2h1.6a3.2 3.2 0 0 1 3.2 3.2v0a3.2 3.2 0 0 1-3.2 3.2h-1.6a3.203 3.203 0 0 1-3.07-2.294"/></g><g><path fill="none" stroke="#f4cc08" stroke-linecap="round" stroke-linejoin="round" stroke-miterlimit="20" stroke-width="2" d="M43 35v0"/></g><g><path fill="none" stroke="#f4cc08" stroke-linecap="round" stroke-linejoin="round" stroke-miterlimit="20" stroke-width="2" d="M43 51v0"/></g><g><path fill="none" stroke="#f4cc08" stroke-linecap="round" stroke-linejoin="round" stroke-miterlimit="20" stroke-width="1.91" d="M43 29v0-2a6 6 0 0 0-6-6H7a6 6 0 0 0-6 6v24a6 6 0 0 0 6 6h30a5.98 5.98 0 0 0 2.336-.472"/></g><g><path fill="none" stroke="#f4cc08" stroke-linecap="round" stroke-linejoin="round" stroke-miterlimit="20" stroke-width="1.91" d="M35 21v0V9a8 8 0 0 0-8-8H17a8 8 0 0 0-8 8v12"/></g><g><path fill="none" stroke="#f4cc08" stroke-linecap="round" stroke-linejoin="round" stroke-miterlimit="20" stroke-width="1.91" d="M16.99 21v0l.008-10.002a2 2 0 0 1 2-1.998H25a2 2 0 0 1 2 2v10"/></g><g><path fill="none" stroke="#f4cc08" stroke-linecap="round" stroke-linejoin="round" stroke-miterlimit="20" stroke-width="2" d="M17 29v0h-4c-2.21 0-4 1.79-4 4v4"/></g></g></g></g></svg>