<svg xmlns="http://www.w3.org/2000/svg" width="58" height="58" viewBox="0 0 58 58"><g><g><g><g><path fill="none" stroke="#fff" stroke-linecap="round" stroke-linejoin="round" stroke-miterlimit="20" stroke-width="2" d="M22.488 47v0H29c2.21 0 4-1.79 4-4v0c0-2.21-1.79-4-4-4h-8.852c-.724 0-1.43-.192-2.05-.566C16.272 37.33 12.054 35 9 35c-4 0-8 4-8 4v18h28.756c2.124 0 4.212-.564 6.046-1.634L57 43v0c0-2.854-2.904-4.79-5.538-3.692L33 47v0H17v0"/></g><g><path fill="none" stroke="#fff" stroke-linecap="round" stroke-linejoin="round" stroke-miterlimit="20" stroke-width="2" d="M21 27L41 3"/></g><g><path fill="none" stroke="#fff" stroke-linecap="round" stroke-linejoin="round" stroke-miterlimit="20" stroke-width="2" d="M19 5a4 4 0 1 1 8 0 4 4 0 0 1-8 0z"/></g><g><path fill="none" stroke="#fff" stroke-linecap="round" stroke-linejoin="round" stroke-miterlimit="20" stroke-width="2" d="M35 25a4 4 0 1 1 8 0 4 4 0 0 1-8 0z"/></g></g></g></g></svg>