<svg xmlns="http://www.w3.org/2000/svg" width="54" height="54" viewBox="0 0 54 54"><g><g><g><g><path fill="none" stroke="#f4cc08" stroke-linecap="round" stroke-linejoin="round" stroke-miterlimit="20" stroke-width="2" d="M5 1v36"/></g><g><path fill="none" stroke="#f4cc08" stroke-linecap="round" stroke-linejoin="round" stroke-miterlimit="20" stroke-width="2" d="M1 5v0l4-4v0l4 4v0"/></g><g><path fill="none" stroke="#f4cc08" stroke-linecap="round" stroke-linejoin="round" stroke-miterlimit="20" stroke-width="2" d="M49 53V17"/></g><g><path fill="none" stroke="#f4cc08" stroke-linecap="round" stroke-linejoin="round" stroke-miterlimit="20" stroke-width="2" d="M45 49v0l4 4v0l4-4v0"/></g><g><g><path fill="none" stroke="#f4cc08" stroke-linecap="round" stroke-linejoin="round" stroke-miterlimit="20" stroke-width="2" d="M13 27c0-7.732 6.268-14 14-14s14 6.268 14 14-6.268 14-14 14-14-6.268-14-14z"/></g><g><path fill="none" stroke="#f4cc08" stroke-linecap="round" stroke-linejoin="round" stroke-miterlimit="20" stroke-width="2" d="M30.836 22.788A3.2 3.2 0 0 0 27.8 20.6h-1.6a3.2 3.2 0 0 0-3.2 3.2v0a3.2 3.2 0 0 0 3.2 3.2h1.6a3.2 3.2 0 0 1 3.2 3.2v0a3.2 3.2 0 0 1-3.2 3.2h-1.6a3.203 3.203 0 0 1-3.07-2.294"/></g><g><path fill="none" stroke="#f4cc08" stroke-linecap="round" stroke-linejoin="round" stroke-miterlimit="20" stroke-width="2" d="M27 19v0"/></g><g><path fill="none" stroke="#f4cc08" stroke-linecap="round" stroke-linejoin="round" stroke-miterlimit="20" stroke-width="2" d="M27 35v0"/></g></g></g></g></g></svg>