<svg xmlns="http://www.w3.org/2000/svg" width="58" height="58" viewBox="0 0 58 58"><g><g><g><g><path fill="none" stroke="#f4cc08" stroke-linecap="round" stroke-linejoin="round" stroke-miterlimit="20" stroke-width="2" d="M15 29c0-7.732 6.268-14 14-14s14 6.268 14 14-6.268 14-14 14-14-6.268-14-14z"/></g><g><path fill="none" stroke="#f4cc08" stroke-linecap="round" stroke-linejoin="round" stroke-miterlimit="20" stroke-width="2" d="M32.836 24.788A3.2 3.2 0 0 0 29.8 22.6h-1.6a3.2 3.2 0 0 0-3.2 3.2v0a3.2 3.2 0 0 0 3.2 3.2h1.6a3.2 3.2 0 0 1 3.2 3.2v0a3.2 3.2 0 0 1-3.2 3.2h-1.6a3.203 3.203 0 0 1-3.07-2.294"/></g><g><path fill="none" stroke="#f4cc08" stroke-linecap="round" stroke-linejoin="round" stroke-miterlimit="20" stroke-width="2" d="M29 21v0"/></g><g><path fill="none" stroke="#f4cc08" stroke-linecap="round" stroke-linejoin="round" stroke-miterlimit="20" stroke-width="2" d="M29 37v0"/></g><g><path fill="none" stroke="#f4cc08" stroke-linecap="round" stroke-linejoin="round" stroke-miterlimit="20" stroke-width="2" d="M25 5a4 4 0 1 1 8 0 4 4 0 0 1-8 0z"/></g><g><path fill="none" stroke="#f4cc08" stroke-linecap="round" stroke-linejoin="round" stroke-miterlimit="20" stroke-width="2" d="M1 29a4 4 0 1 1 8 0 4 4 0 0 1-8 0z"/></g><g><path fill="none" stroke="#f4cc08" stroke-linecap="round" stroke-linejoin="round" stroke-miterlimit="20" stroke-width="2" d="M29 9v6"/></g><g><path fill="none" stroke="#f4cc08" stroke-linecap="round" stroke-linejoin="round" stroke-miterlimit="20" stroke-width="2" d="M8.03 12.03a4 4 0 1 1 8 0 4 4 0 0 1-8 0z"/></g><g><path fill="none" stroke="#f4cc08" stroke-linecap="round" stroke-linejoin="round" stroke-miterlimit="20" stroke-width="2" d="M14.858 14.858L19.1 19.1"/></g><g><path fill="none" stroke="#f4cc08" stroke-linecap="round" stroke-linejoin="round" stroke-miterlimit="20" stroke-width="2" d="M9 29h6"/></g><g><path fill="none" stroke="#f4cc08" stroke-linecap="round" stroke-linejoin="round" stroke-miterlimit="20" stroke-width="2" d="M8.03 45.97a4 4 0 1 1 8 0 4 4 0 0 1-8 0z"/></g><g><path fill="none" stroke="#f4cc08" stroke-linecap="round" stroke-linejoin="round" stroke-miterlimit="20" stroke-width="2" d="M14.858 43.142L19.1 38.9"/></g><g><path fill="none" stroke="#f4cc08" stroke-linecap="round" stroke-linejoin="round" stroke-miterlimit="20" stroke-width="2" d="M25 53a4 4 0 1 1 8 0 4 4 0 0 1-8 0z"/></g><g><path fill="none" stroke="#f4cc08" stroke-linecap="round" stroke-linejoin="round" stroke-miterlimit="20" stroke-width="2" d="M29 49v-6"/></g><g><path fill="none" stroke="#f4cc08" stroke-linecap="round" stroke-linejoin="round" stroke-miterlimit="20" stroke-width="2" d="M41.97 45.97a4 4 0 1 1 8 0 4 4 0 0 1-8 0z"/></g><g><path fill="none" stroke="#f4cc08" stroke-linecap="round" stroke-linejoin="round" stroke-miterlimit="20" stroke-width="2" d="M43.142 43.142L38.9 38.9"/></g><g><path fill="none" stroke="#f4cc08" stroke-linecap="round" stroke-linejoin="round" stroke-miterlimit="20" stroke-width="2" d="M49 29a4 4 0 1 1 8 0 4 4 0 0 1-8 0z"/></g><g><path fill="none" stroke="#f4cc08" stroke-linecap="round" stroke-linejoin="round" stroke-miterlimit="20" stroke-width="2" d="M49 29h-6"/></g><g><path fill="none" stroke="#f4cc08" stroke-linecap="round" stroke-linejoin="round" stroke-miterlimit="20" stroke-width="2" d="M41.97 12.03a4 4 0 1 1 8 0 4 4 0 0 1-8 0z"/></g><g><path fill="none" stroke="#f4cc08" stroke-linecap="round" stroke-linejoin="round" stroke-miterlimit="20" stroke-width="2" d="M43.142 14.858L38.9 19.1"/></g></g></g></g></svg>