<svg xmlns="http://www.w3.org/2000/svg" viewBox="0 0 34 58"><defs><style>.cls-1{fill:none;stroke:#f4cc08;stroke-linecap:round;stroke-linejoin:round;stroke-width:2px;}</style></defs><title>ico-phone</title><g id="Layer_2" data-name="Layer 2"><g id="Layer_1-2" data-name="Layer 1"><path class="cls-1" d="M29,57H5a4,4,0,0,1-4-4V5A4,4,0,0,1,5,1H29a4,4,0,0,1,4,4V53A4,4,0,0,1,29,57Z"/><path class="cls-1" d="M33,47a4,4,0,0,1-4,4H5a4,4,0,0,1-4-4"/><path class="cls-1" d="M11,7h6"/><path class="cls-1" d="M25,7H23"/><path class="cls-1" d="M25,23H9"/><path class="cls-1" d="M21,19h0l4,4h0l-4,4h0"/><path class="cls-1" d="M9,35H25"/><path class="cls-1" d="M13,31h0L9,35H9l4,4h0"/></g></g></svg>